<svg xmlns="http://www.w3.org/2000/svg" viewBox="0 0 27.898 18.607">
  <defs>
    <style>
      .cls-1 {
        fill: #fff;
      }
    </style>
  </defs>
  <path id="_ionicons_svg_ios-arrow-round-back" class="cls-1" d="M122.207,160.38a1.266,1.266,0,0,1,.01,1.783l-5.882,5.9h22.414a1.26,1.26,0,0,1,0,2.52H116.335l5.892,5.9a1.275,1.275,0,0,1-.01,1.783,1.255,1.255,0,0,1-1.773-.01l-7.985-8.043a1.415,1.415,0,0,1-.262-.4,1.2,1.2,0,0,1-.1-.485,1.263,1.263,0,0,1,.359-.882l7.985-8.043A1.234,1.234,0,0,1,122.207,160.38Z" transform="translate(-112.1 -160.023)"/>
</svg>
