<svg xmlns="http://www.w3.org/2000/svg" viewBox="0 0 26.763 26.752">
  <defs>
    <style>
      .cls-1 {
        fill: #2196f3;
      }
    </style>
  </defs>
  <path id="Path_4915" data-name="Path 4915" class="cls-1" d="M3511,698.373l2.772,1.72,2.852-1.332.452-2.938h3.974l.55,2.938,2.916,1.332,2.425-1.972,3.038,3.073-1.858,2.613,1.321,2.693,2.826.522.26,3.768-3.45.88-.957,3,1.834,2.388-2.878,2.724-2.856-1.739-2.687,1.356-.667,3.179-3.706-.383-.768-3.123-2.635-1.029-2.261,1.739-3.15-2.8,1.839-2.695-1.12-2.659-3.3-.79.167-3.783,3.135-.611,1.12-2.842-1.868-2.7Z" transform="translate(-3505.761 -695.823)"/>
</svg>
